{"title":"Silent Witness S19 E05-E06","uid":13259593,"size":1332033767,"categoryP":"video","categoryS":"tv_shows","magnet":"?xt=urn:btih:4e1166c1f0c2ece1008ad40151fe4e0d2cd75900&amp;dn=Silent+Witness+S19+E05-E06&amp;tr=udp%3A%2F%2Ftracker.leechers-paradise.org%3A6969&amp;tr=udp%3A%2F%2Fzer0day.ch%3A1337&amp;tr=udp%3A%2F%2Fopen.demonii.com%3A1337&amp;tr=udp%3A%2F%2Ftracker.coppersurfer.tk%3A6969&amp;tr=udp%3A%2F%2Fexodus.desync.com%3A6969","seeders":1,"leechers":0,"uploader":"RedBaron58","files":2,"time":1453253115,"description":"Silent Witness S19 E05- E06 x284 mp4\r\n  \nhttp://www.imdb.com/title/tt0115355/\r\n\r\n\r\n\r\nThank you for your kind comments and feedback on my other torrents, your feedback is welcome.\r\n\r\n\r\nAbout these episodes:\r\nAn ex-convict is found murdered in his home and suspicion immediately lands on a recently \r\nreleased child killer. Nikki and the Lyell team are introduced to forensic psychologist \r\nSasha Blackburn, who works closely with those released from prison on licence, \r\nas both the victim and one of the suspects are clients of hers. \r\nThe investigators soon learn that it is not just the minds of these young men that are \r\nfragile, but their freedom is too.\r\n\r\n\r\nI hope you enjoy.\r\n\r\n\r\nTechnical: (Both episodes are encoded to the same settings)\r\n\r\nGeneral\r\nComplete name                            : G:Silent Witness S19 E05-E06Silent Witness S19E05 - Life Licence pt1 x264 RB58.mp4\r\nFormat                                   : MPEG-4\r\nFormat profile                           : Base Media\r\nCodec ID                                 : isom\r\nFile size                                : 643 MiB\r\nDuration                                 : 59mn 6s\r\nOverall bit rate                         : 1 521 Kbps\r\nWriting application                      : Lavf54.63.104\r\n\r\nVideo\r\nID                                       : 1\r\nFormat                                   : AVC\r\nFormat/Info                              : Advanced Video Codec\r\nFormat profile                           :   \r\nFormat settings, CABAC                   : Yes\r\nFormat settings, ReFrames                : 4 frames\r\nCodec ID                                 : avc1\r\nCodec ID/Info                            : Advanced Video Coding\r\nDuration                                 : 59mn 6s\r\nBit rate                                 : 1 400 Kbps\r\nWidth                                    : 832 pixels\r\nHeight                                   : 468 pixels\r\nDisplay aspect ratio                     : 16:9\r\nFrame rate mode                          : Constant\r\nFrame rate                               : 25.000 fps\r\nColor space                              : YUV\r\nChroma subsampling                       : 4:2:0\r\nBit depth                                : 8 bits\r\nScan type                                : Progressive\r\nBits/(Pixel*Frame)                       : 0.144\r\nStream size                              : 592 MiB (92%)\r\nWriting library                          : x264 core 123 r2189 35cf912\r\nEncoding settings                        : cabac=1 / ref=3 / deblock=1:0:0\r\n\r\nAudio\r\nID                                       : 2\r\nFormat                                   : AAC\r\nFormat/Info                              : Advanced Audio Codec\r\nFormat profile                           : LC\r\nCodec ID                                 : 40\r\nDuration                                 : 59mn 6s\r\nBit rate mode                            : Constant\r\nBit rate                                 : 112 Kbps\r\nChannel(s)                               : 2 channels\r\nChannel positions                        : Front: L R\r\nSampling rate                            : 48.0 KHz\r\nCompression mode                         : Lossy\r\nStream size                              : 47.3 MiB (7%)","torrent":{"xt":"urn:btih:4e1166c1f0c2ece1008ad40151fe4e0d2cd75900","amp;dn":"Silent+Witness+S19+E05-E06","amp;tr":["udp%3A%2F%2Ftracker.leechers-paradise.org%3A6969","udp%3A%2F%2Fzer0day.ch%3A1337","udp%3A%2F%2Fopen.demonii.com%3A1337","udp%3A%2F%2Ftracker.coppersurfer.tk%3A6969","udp%3A%2F%2Fexodus.desync.com%3A6969"],"infoHash":"4e1166c1f0c2ece1008ad40151fe4e0d2cd75900","infoHashBuffer":{"type":"Buffer","data":[78,17,102,193,240,194,236,225,0,138,212,1,81,254,78,13,44,215,89,0]},"announce":[],"urlList":[]}}